<svg xmlns="http://www.w3.org/2000/svg" shape-rendering="geometricPrecision" text-rendering="geometricPrecision" image-rendering="optimizeQuality" fill-rule="evenodd" clip-rule="evenodd" viewBox="0 0 512 468.349"><path fill="#E38A49" d="M112.12 194.623c-9.029 12.785-16.737 25.738-24.339 38.514-14.671 24.655-28.974 48.69-49.604 67.955 119.23-5.796 153.283 38.923 181.431 75.911l1.098 1.442c9.325 12.243 16.888 21.232 23.457 26.783 5.137 4.341 9.285 6.288 12.973 5.792 3.553-.477 7.581-3.045 12.459-7.735 5.772-5.55 12.366-13.858 20.272-24.9.115-.16.235-.314.358-.464l.66-.923c26.641-37.24 58.854-82.251 179.684-76.271-20.856-18.752-34.744-43.246-49.06-68.499-7.209-12.718-14.534-25.638-22.705-37.693-12.072-17.81-26.649-32.423-42.856-43.869-29.356-20.733-64.019-31.02-98.798-31.066-34.857-.046-69.83 10.161-99.712 30.416-17.062 11.565-32.491 26.445-45.318 44.607z"/><path fill="#18252E" fill-rule="nonzero" d="M112.12 194.623c-9.029 12.785-16.737 25.738-24.339 38.514-14.671 24.655-28.974 48.69-49.604 67.955 119.23-5.796 153.283 38.923 181.431 75.911l1.098 1.442c9.325 12.243 16.888 21.232 23.457 26.783 5.137 4.341 9.285 6.288 12.973 5.792 3.553-.477 7.581-3.045 12.459-7.735 5.772-5.55 12.366-13.858 20.272-24.9.115-.16.235-.314.358-.464l.66-.923c26.641-37.24 58.854-82.251 179.684-76.271-20.856-18.752-34.744-43.246-49.06-68.499-7.209-12.718-14.534-25.638-22.705-37.693-12.072-17.81-26.649-32.423-42.856-43.869-29.356-20.733-64.019-31.02-98.798-31.066-34.857-.046-69.83 10.161-99.712 30.416-17.062 11.565-32.491 26.445-45.318 44.607zm-39.415 29.564c7.969-13.39 16.047-26.966 25.028-39.683 14.051-19.896 31.031-36.25 49.861-49.013 32.858-22.272 71.282-33.496 109.556-33.445 38.355.05 76.569 11.387 108.917 34.233 17.846 12.603 33.92 28.728 47.262 48.412 8.744 12.899 16.161 25.983 23.462 38.863 18.61 32.828 36.441 64.279 69.987 80.63a8.797 8.797 0 01-4.539 16.781c-138.58-15.488-170.787 29.53-197.035 66.221l-.689.963a9.409 9.409 0 01-.329.494c-8.428 11.77-15.667 20.828-22.407 27.309-7.635 7.342-14.802 11.476-22.303 12.485-9.098 1.223-17.556-2.084-26.672-9.786-7.683-6.492-16.02-16.337-26.073-29.535l-1.097-1.442c-27.714-36.418-61.691-81.066-195.925-66.709l-.002-.012a8.776 8.776 0 01-8.5-4.291 8.778 8.778 0 013.132-12.012c31.514-18.53 49.62-48.959 68.366-80.463z"/><path fill="#F1B285" d="M112.12 194.623c-8.289 11.736-15.464 23.615-22.467 35.368 36.988-51.228 77.713-92.403 151.157-96.522 67.625-2.821 122.477 24.684 170.144 80.402-3.889-6.579-7.906-13.074-12.15-19.336-12.072-17.81-26.649-32.423-42.856-43.869-29.356-20.733-64.019-31.02-98.798-31.066-34.857-.046-69.83 10.161-99.712 30.416-17.062 11.565-32.491 26.445-45.318 44.607z"/><path fill="#18252E" d="M185.719 242.078c13.223 0 23.943 10.72 23.943 23.942 0 13.224-10.72 23.943-23.943 23.943s-23.943-10.719-23.943-23.943c0-13.222 10.72-23.942 23.943-23.942zm140.545 0c13.222 0 23.942 10.72 23.942 23.942 0 13.224-10.72 23.943-23.942 23.943-13.223 0-23.943-10.719-23.943-23.943 0-13.222 10.72-23.942 23.943-23.942z"/><path fill="#FEFDFD" d="M77.262 216.054c15.278-25.793 30.555-46.703 48.762-63.62 19.684-18.291 42.576-31.732 72.24-41.358-17.018-23.34-35.481-41.837-54.981-56.503-19.886-14.955-40.95-25.977-62.732-34.129-15.629 32.983-21.965 66.643-21.225 100.817.672 31.102 7.206 62.752 17.936 94.793z"/><path fill="#18252E" fill-rule="nonzero" d="M77.262 216.054c15.278-25.793 30.555-46.703 48.762-63.62 19.684-18.291 42.576-31.732 72.24-41.358-17.018-23.34-35.481-41.837-54.981-56.503-19.886-14.955-40.95-25.977-62.732-34.129-15.629 32.983-21.965 66.643-21.225 100.817.672 31.102 7.206 62.752 17.936 94.793zm60.74-50.747c-20.396 18.952-37.122 43.835-54.868 75.931l-.005-.003a8.79 8.79 0 01-15.931-1.133c-15.142-39.843-24.581-79.393-25.427-118.497-.848-39.231 6.957-77.841 26.309-115.617a8.807 8.807 0 0110.928-4.806c25.906 8.893 51.049 21.479 74.807 39.347 23.687 17.815 45.878 40.822 65.916 70.579l-.005.002a8.776 8.776 0 01-4.986 13.353c-32.575 8.957-56.585 22.118-76.738 40.844z"/><path fill="#C0CACF" d="M94.046 189.846c9.975-14.243 20.383-26.638 31.978-37.412a178.458 178.458 0 0120.152-16.207c-4.454-17.247-12.927-37.534-26.135-58.868-10.648-17.201-24.369-35.041-41.535-52.476a228.585 228.585 0 00-1.815 4.168c-6.596 66.381 1.251 118.177 17.355 160.795z"/><path fill="#E48A49" d="M161.527 125.907a194.602 194.602 0 0116.398-7.872c6.059-2.575 12.462-4.952 19.253-7.146-16.978-23.35-35.212-41.816-54.474-56.439a236.197 236.197 0 00-32.54-20.741c9.563 11.537 17.805 23.102 24.816 34.425 12.711 20.534 21.381 40.325 26.547 57.773z"/><path fill="#18252E" fill-rule="nonzero" d="M161.527 125.907a194.602 194.602 0 0116.398-7.872c6.059-2.575 12.462-4.952 19.253-7.146-16.978-23.35-35.212-41.816-54.474-56.439a236.197 236.197 0 00-32.54-20.741c9.563 11.537 17.805 23.102 24.816 34.425 12.711 20.534 21.381 40.325 26.547 57.773zm23.282 8.305c-8.764 3.725-16.773 7.892-24.184 12.55l-.003-.006a8.778 8.778 0 01-13.249-5.536c-4.031-18.264-12.826-40.431-27.332-63.861-12.362-19.97-28.866-40.802-50.094-60.861a8.792 8.792 0 01-1.902-10.434l.015-.029a8.806 8.806 0 0110.948-4.853c25.91 8.894 50.789 21.447 74.297 39.294 23.413 17.774 45.318 40.725 65.337 70.456l-.004.002a8.777 8.777 0 01-4.986 13.353c-10.4 2.859-19.962 6.151-28.843 9.925z"/><path fill="#FDFDFD" d="M209.283 394.925c-18.696-29.913-40.297-49.368-65.771-61.036-24.691-11.309-53.329-15.503-86.693-14.941-5.138 6.669-11.033 13.031-17.261 19.065a254.093 254.093 0 01-3.959 3.75c70.987 3.573 113.861 39.314 150.134 69.56 24.066 20.067 44.997 37.517 68.352 39.405 23.355-1.888 44.286-19.338 68.351-39.405 36.274-30.246 79.148-65.987 150.136-69.56a249.755 249.755 0 01-3.96-3.75c-6.269-6.073-12.199-12.478-17.36-19.194-32.384-1.54-62.048 3.373-87.75 16.049-24.897 12.279-46.266 31.953-63.004 60.234-8.068 13.63-16.6 23.167-25.462 28.704-6.239 3.9-12.685 5.859-19.296 5.909-6.548.05-12.989-1.804-19.283-5.529-9.367-5.544-18.474-15.341-27.174-29.261z"/><path fill="#18252E" fill-rule="nonzero" d="M209.283 394.925c-18.696-29.913-40.297-49.368-65.771-61.036-24.691-11.309-53.329-15.503-86.693-14.941-5.138 6.669-11.033 13.031-17.261 19.065a254.093 254.093 0 01-3.959 3.75c70.987 3.573 113.861 39.314 150.134 69.56 24.066 20.067 44.997 37.517 68.352 39.405 23.355-1.888 44.286-19.338 68.351-39.405 36.274-30.246 79.148-65.987 150.136-69.56a249.755 249.755 0 01-3.96-3.75c-6.269-6.073-12.199-12.478-17.36-19.194-32.384-1.54-62.048 3.373-87.75 16.049-24.897 12.279-46.266 31.953-63.004 60.234-8.068 13.63-16.6 23.167-25.462 28.704-6.239 3.9-12.685 5.859-19.296 5.909-6.548.05-12.989-1.804-19.283-5.529-9.367-5.544-18.474-15.341-27.174-29.261zm10.62-15.958a65.194 65.194 0 0113.306-6.657 66.362 66.362 0 0122.782-4.023 66.403 66.403 0 0122.284 3.832 65.483 65.483 0 0112.203 5.819c17.758-27.017 39.82-46.296 65.245-58.834 29.555-14.576 63.443-19.92 100.21-17.643a8.793 8.793 0 017.095 3.678c5.131 7.157 11.281 13.925 17.837 20.276 6.678 6.469 13.795 12.543 20.715 18.178a8.782 8.782 0 013.414 7.373c-.228 4.848-4.344 8.592-9.191 8.365-78.92-3.911-124.342 33.962-162.146 65.485-26.543 22.133-49.609 41.364-78.729 43.493a8.934 8.934 0 01-1.428.02c-29.243-2.034-52.366-21.315-78.987-43.513-37.804-31.523-83.226-69.396-162.146-65.485a8.785 8.785 0 01-7.228-3.236 8.784 8.784 0 011.273-12.357c6.976-5.676 14.157-11.798 20.893-18.323 6.555-6.351 12.705-13.119 17.837-20.276l.022.015a8.77 8.77 0 016.897-3.664c37.799-1.078 70.343 3.418 98.748 16.428 26.693 12.226 49.444 31.788 69.094 61.049z"/><path fill="#C3CBCF" d="M315.327 417.234c2.343-1.937 4.71-3.91 7.109-5.911 36.274-30.246 79.148-65.987 150.135-69.56a254.093 254.093 0 01-3.959-3.75c-5.497-5.326-10.735-10.907-15.421-16.729-49.607 13.992-109.088 50.034-137.864 95.95zM54.924 321.351c-4.672 5.798-9.891 11.357-15.366 16.662a254.093 254.093 0 01-3.959 3.75c70.987 3.573 113.861 39.314 150.134 69.56 2.196 1.831 4.365 3.639 6.513 5.417-28.846-45.608-87.939-81.4-137.322-95.389z"/><path fill="#18252E" fill-rule="nonzero" d="M147.894 144.513a8.787 8.787 0 01-12.392 12.46l-22.171-21.945a8.786 8.786 0 1112.391-12.46l22.172 21.945z"/><path fill="#FEFDFD" d="M383.675 151.85c17.837 17.205 32.727 38.358 47.855 64.174 10.845-32.114 17.747-63.942 18.78-95.218 1.134-34.316-4.797-68.107-20.354-101.067-21.79 8.127-42.882 19.009-62.799 33.829-19.516 14.522-37.987 32.866-54.994 56.15 29.642 9.713 52.188 23.494 71.512 42.132z"/><path fill="#18252E" fill-rule="nonzero" d="M425.623 241.238c-17.784-32.165-34.14-57.438-54.134-76.722-19.726-19.025-43.291-32.49-75.796-41.427a8.777 8.777 0 01-4.987-13.353l-.004-.002c20.058-29.788 42.28-52.635 65.991-70.278 23.761-17.68 48.913-30.087 74.814-38.977a8.808 8.808 0 0110.929 4.808c19.37 37.823 26.731 76.642 25.429 116.07-1.298 39.248-11.178 78.938-26.305 118.745a8.791 8.791 0 01-15.932 1.133l-.005.003zm-41.948-89.388c17.837 17.205 32.727 38.358 47.855 64.174 10.845-32.114 17.747-63.942 18.78-95.218 1.134-34.316-4.797-68.107-20.354-101.067-21.79 8.127-42.882 19.009-62.799 33.829-19.516 14.522-37.987 32.866-54.994 56.15 29.642 9.713 52.188 23.494 71.512 42.132z"/><path fill="#C0CACF" d="M383.674 151.85c10.636 10.258 20.223 21.92 29.437 35.137 18.031-43.41 24.881-95.947 17.05-160.467-16.256 16.8-29.315 33.75-39.577 50.112-13.282 21.178-21.852 41.305-26.595 58.78 6.977 4.999 13.497 10.469 19.685 16.438z"/><path fill="#E48A49" d="M333.029 116.424a184.542 184.542 0 0115.964 7.691c5.416-17.373 14.109-36.736 26.722-56.846 6.95-11.081 15.1-22.406 24.556-33.765a230.275 230.275 0 00-32.083 20.307c-18.981 14.342-36.913 32.497-53.792 55.72 6.632 2.134 12.802 4.415 18.633 6.893z"/><path fill="#18252E" fill-rule="nonzero" d="M349.714 144.886c-7.41-4.657-15.117-8.694-23.569-12.285-8.569-3.641-17.827-6.802-28.227-9.662-4.676-1.273-7.434-6.097-6.161-10.774a8.76 8.76 0 011.175-2.578l-.005-.003c20.058-29.787 41.618-52.407 64.659-69.817 23.127-17.473 47.666-29.676 73.62-38.585a8.806 8.806 0 0110.948 4.853l.015.029a8.792 8.792 0 01-1.919 10.449c-21.038 20.037-37.362 40.501-49.666 60.119-14.335 22.856-23.182 44.49-27.652 62.885a8.782 8.782 0 01-10.602 6.471 8.758 8.758 0 01-2.616-1.102zm-16.685-28.462a184.542 184.542 0 0115.964 7.691c5.416-17.373 14.109-36.736 26.722-56.846 6.95-11.081 15.1-22.406 24.556-33.765a230.275 230.275 0 00-32.083 20.307c-18.981 14.342-36.913 32.497-53.792 55.72 6.632 2.134 12.802 4.415 18.633 6.893zM376.509 153.621a8.786 8.786 0 01-12.391-12.46l18.785-18.593c3.44-3.422 9.004-3.406 12.426.034a8.788 8.788 0 01-.034 12.426l-18.786 18.593z"/></svg>